<svg xmlns="http://www.w3.org/2000/svg" viewBox="0 0 64 64" role="img" aria-label="Saras Totey sakura compass">
  <rect width="64" height="64" rx="12" fill="#17182B"/>
  <g fill="#D64B83">
    <path d="M32 7C25 13 23 20 27 26c2 3 3 4 5 5 2-1 3-2 5-5 4-6 2-13-5-19Z"/>
    <path d="M56 24c-8-4-15-3-19 3-2 3-2 4-2 6 2 1 4 1 7 0 7-1 11-4 14-9Z"/>
    <path d="M47 53c1-9-2-15-9-17-3-1-5-1-7 0 0 2 1 4 3 6 4 6 8 9 13 11Z"/>
    <path d="M17 53c9-2 14-7 13-14 0-3-1-4-2-6-2 0-4 1-6 3-5 4-7 10-5 17Z"/>
    <path d="M8 24c3 7 9 11 16 9 3-1 4-2 5-4-1-2-2-3-5-5-5-4-11-4-16 0Z"/>
  </g>
  <path d="M20 43 30 29l5 5 9-13-8 22-6-6-10 6Z" fill="#F3EBDD"/>
  <circle cx="32" cy="32" r="2.8" fill="#17182B"/>
</svg>
